<svg id="Printit" data-name="Printit" xmlns="http://www.w3.org/2000/svg" viewBox="0 0 49.64 65">
  <defs>
    <style>
      .cls-1 {
        fill: #f43f5e;
        stroke-width: 0px;
      }
    </style>
  </defs>
  <g id="Layer_1-2" data-name="Layer 1">
    <g>
      <polygon class="cls-1" points="30.09 8.07 31.19 16.13 32.33 16.13 37.38 13.3 49.64 6.44 49.64 0 29 0 30.09 8.07"/>
      <polygon class="cls-1" points="21.07 15.33 21.07 15.33 21.86 16.04 21.97 16.13 28.56 16.13 26.76 2.85 21.07 15.33 21.07 15.33"/>
      <path class="cls-1" d="M33.5,33.13l1.32,9.69.23,1.7,12.35-1.65c.12-.18.23-.37.34-.56l-14.24-12.55v3.37Z"/>
      <path class="cls-1" d="M35.4,47.1l.34,2.53c3.44-.14,6.69-1.51,9.19-3.8l-4.88.65-4.65.62Z"/>
      <path class="cls-1" d="M19.02,13.53L25.19,0h-10.7c-2.88,0-5.69.86-8.05,2.45l5.44,4.79,7.15,6.29Z"/>
      <path class="cls-1" d="M33.5,18.46v7.82l15.36,13.54c.51-1.5.77-3.07.77-4.68V9.42l-8.07,4.52-8.07,4.52Z"/>
      <polygon class="cls-1" points="4.73 51.19 0 61.57 0 65 15.19 49.79 6.1 51.01 4.73 51.19"/>
      <polygon class="cls-1" points="14.89 28.89 6.01 48.39 7.64 48.17 32.47 44.86 32.44 44.7 30.92 33.5 16.13 33.5 16.13 28.2 14.89 28.89"/>
      <polygon class="cls-1" points="32.82 47.44 18.72 49.32 16.39 49.64 33.11 49.64 33.07 49.31 32.82 47.44"/>
      <polygon class="cls-1" points="11.05 31.04 2.32 35.94 0 37.23 0 49.19 2.96 48.8 11.05 31.04"/>
      <path class="cls-1" d="M12.87,27.03l3.25-7.15v-3.75h1.71l.06-.13L4.38,4.11C1.59,6.82,0,10.55,0,14.5v19.75l4.82-2.7,8.06-4.52Z"/>
      <polygon class="cls-1" points="1.57 51.61 0 51.82 0 55.29 1.68 51.6 1.57 51.61"/>
    </g>
  </g>
</svg>